<?xml version="1.0" standalone="no"?>
<!DOCTYPE svg PUBLIC "-//W3C//DTD SVG 20010904//EN"
 "http://www.w3.org/TR/2001/REC-SVG-20010904/DTD/svg10.dtd">
<svg version="1.0" xmlns="http://www.w3.org/2000/svg"
 width="320.000000pt" height="320.000000pt" viewBox="0 0 320.000000 320.000000"
 preserveAspectRatio="xMidYMid meet">

<g transform="translate(0.000000,320.000000) scale(0.100000,-0.100000)"
fill="#68358a" stroke="none">
<path d="M1467 3129 c-353 -31 -672 -179 -933 -431 -486 -471 -607 -1184 -304
-1788 151 -300 389 -535 700 -692 52 -26 105 -48 118 -48 12 0 39 15 60 34
l37 34 3 171 3 171 -119 0 c-143 0 -192 14 -261 76 -51 45 -58 57 -112 189
-23 55 -49 97 -86 137 -42 46 -53 65 -53 91 0 75 83 94 179 41 33 -17 84 -62
133 -116 45 -49 93 -91 110 -97 36 -13 194 -14 257 -2 39 8 89 48 91 73 0 4
-19 12 -42 18 -349 88 -548 314 -548 621 0 106 21 195 65 277 l34 65 -15 71
c-22 98 -22 228 -1 292 10 28 32 65 50 82 l33 32 76 -10 c95 -12 175 -39 251
-86 l57 -35 48 14 c108 34 161 42 302 42 140 0 194 -8 301 -41 45 -14 46 -14
104 21 83 49 157 75 250 86 l80 9 36 -40 c20 -22 42 -61 50 -87 17 -61 15
-199 -5 -282 l-15 -65 34 -71 c54 -112 68 -183 62 -305 -9 -172 -57 -281 -173
-396 -81 -82 -195 -145 -330 -183 l-80 -24 42 -64 c24 -35 55 -99 69 -144 23
-75 25 -94 25 -287 0 -241 9 -275 75 -306 l38 -18 111 55 c153 76 271 162 401
292 127 127 211 241 289 395 228 445 228 960 0 1400 -79 152 -171 275 -298
398 -265 256 -571 396 -942 432 -119 11 -127 11 -257 -1z"/>
</g>
</svg>
