<?xml version="1.0" standalone="no"?>
<svg xmlns="http://www.w3.org/2000/svg" xmlns:xlink="http://www.w3.org/1999/xlink" height="1080px" width="1920px">
  <defs>
    <pattern id="doodad" width="55" height="55" viewBox="0 0 40 40" patternUnits="userSpaceOnUse" patternTransform="">
      <rect width="100%" height="100%" fill="rgba(203, 213, 224,1)"/>
      <path d="M20 6a 20 20 0 0 1 40 0h8a 8 8 0 0 1-16 0a 12 12 0 0 0-24 0a 8 8 0 0 1-16 0a 12 12 0 0 0-24 0h-8a 20 20 0 0 1 40 0z" fill="rgba(144, 205, 244,1)"/>
      <path d="M0 26.5a 20 20 0 0 1 40 0h7a 7 7 0 0 1-14 0a 13 13 0 0 0-26 0a 7 7 0 0 1-14 0z" fill="rgba(127, 156, 245,1)"/>
      <path d="M20 46a 20 20 0 0 1 40 0h8a 8 8 0 0 1-16 0a 12 12 0 0 0-24 0a 8 8 0 0 1-16 0a 12 12 0 0 0-24 0h-8a 20 20 0 0 1 40 0z" fill="rgba(144, 205, 244,1)"/>
    </pattern>
  </defs>
  <rect fill="url(#doodad)" height="200%" width="200%"/>
</svg>
