<svg id="visual" viewBox="0 0 1920 1000" width="1920" height="1000" xmlns="http://www.w3.org/2000/svg" xmlns:xlink="http://www.w3.org/1999/xlink" version="1.1"><rect x="0" y="0" width="1920" height="1000" fill="#b8dbec"></rect><path d="M0 756L24.7 723.5C49.3 691 98.7 626 147.8 619.2C197 612.3 246 663.7 295.2 656.8C344.3 650 393.7 585 443 551C492.3 517 541.7 514 590.8 528.8C640 543.7 689 576.3 738.2 583.8C787.3 591.3 836.7 573.7 886 560.8C935.3 548 984.7 540 1034 572.3C1083.3 604.7 1132.7 677.3 1181.8 699.3C1231 721.3 1280 692.7 1329.2 681.8C1378.3 671 1427.7 678 1477 667.5C1526.3 657 1575.7 629 1624.8 621.2C1674 613.3 1723 625.7 1772.2 653.7C1821.3 681.7 1870.7 725.3 1895.3 747.2L1920 769L1920 1001L1895.3 1001C1870.7 1001 1821.3 1001 1772.2 1001C1723 1001 1674 1001 1624.8 1001C1575.7 1001 1526.3 1001 1477 1001C1427.7 1001 1378.3 1001 1329.2 1001C1280 1001 1231 1001 1181.8 1001C1132.7 1001 1083.3 1001 1034 1001C984.7 1001 935.3 1001 886 1001C836.7 1001 787.3 1001 738.2 1001C689 1001 640 1001 590.8 1001C541.7 1001 492.3 1001 443 1001C393.7 1001 344.3 1001 295.2 1001C246 1001 197 1001 147.8 1001C98.7 1001 49.3 1001 24.7 1001L0 1001Z" fill="#ffc655" stroke-linecap="round" stroke-linejoin="miter"></path></svg>